<svg width="132" height="143" viewBox="0 0 132 143" fill="none" xmlns="http://www.w3.org/2000/svg">
<path d="M14.0266 106.724C8.68313 101.38 4.84628 95.4141 2.51604 88.8252C0.225976 82.2764 -0.215967 75.6071 1.19021 68.8173C2.63657 62.0676 6.29263 55.7599 12.1584 49.8941C16.0154 46.0372 20.0933 43.3253 24.3922 41.7584C28.691 40.1915 33.3314 39.7696 38.3133 40.4928C43.2952 41.216 48.6989 43.1244 54.5245 46.218C60.3903 49.2714 66.7985 53.51 73.749 58.9338C79.0121 63.072 83.753 66.7281 87.9715 69.902C92.2302 73.0358 95.9867 75.0647 99.241 75.9888C102.535 76.953 105.368 76.2499 107.738 73.8795L111.595 70.0226C118.345 63.2729 121.579 55.78 121.298 47.5438C121.017 39.3076 117.14 31.4531 109.667 23.9803C103.038 17.3511 95.9867 13.2331 88.5139 11.626C81.1214 10.0189 74.2311 10.6015 67.8431 13.3737L63.504 3.85184C69.6912 1.20019 75.9185 0.0752425 82.1861 0.477009C88.4938 0.918949 94.5404 2.58628 100.326 5.47899C106.151 8.41187 111.455 12.2688 116.236 17.0498C120.374 21.188 123.729 25.7079 126.3 30.6094C128.911 35.5511 130.498 40.6736 131.061 45.9769C131.663 51.3204 130.98 56.7041 129.012 62.1279C127.083 67.5115 123.568 72.7546 118.465 77.857L53.8014 142.521L46.4491 135.169L63.1424 118.475L62.6 117.933C57.5378 119.781 52.1742 120.725 46.5093 120.766C40.9248 120.806 35.3202 119.701 29.6955 117.451C24.1511 115.201 18.9281 111.625 14.0266 106.724ZM21.5597 100.637C27.3451 106.422 33.8738 110.139 41.1458 111.786C48.4981 113.433 55.9106 113.052 63.3835 110.641C70.8563 108.23 77.7265 103.891 83.994 97.6238L97.6139 84.004C95.8863 83.8835 93.8172 83.2607 91.4066 82.1358C89.0764 81.0108 86.5653 79.5846 83.8735 77.857C81.262 76.1294 78.5702 74.2411 75.798 72.1921C73.1062 70.1431 70.4947 68.1343 67.9636 66.1656C60.4104 60.2195 53.6607 55.9608 47.7146 53.3895C41.8489 50.8182 36.5857 49.8941 31.9253 50.6173C27.305 51.3807 23.0864 53.6707 19.2696 57.4875C12.9619 63.7952 10.1496 70.9466 10.8326 78.9418C11.5156 86.9369 15.0913 94.1687 21.5597 100.637Z" fill="white"/>
</svg>
