<svg width="256" height="256" viewBox="0 0 256 256" fill="none" xmlns="http://www.w3.org/2000/svg">
<rect width="256" height="256" fill="#D9D9D9"/>
<path d="M73.3874 232C63.8458 232 55.2519 230.296 47.6055 226.888C40.0245 223.415 34.012 218.304 29.568 211.554C25.1893 204.804 23 196.481 23 186.586C23 178.067 24.5685 171.022 27.7054 165.452C30.8424 159.882 35.123 155.425 40.5474 152.083C45.9717 148.741 52.0822 146.218 58.879 144.514C65.7411 142.745 72.8319 141.467 80.1515 140.681C88.9742 139.763 96.1304 138.944 101.62 138.223C107.11 137.437 111.096 136.257 113.58 134.684C116.129 133.046 117.403 130.523 117.403 127.115V126.526C117.403 119.12 115.214 113.386 110.835 109.323C106.456 105.26 100.15 103.229 91.9151 103.229C83.2231 103.229 76.3283 105.129 71.2308 108.93C66.1986 112.731 62.8002 117.22 61.0356 122.397L27.9015 117.679C30.5156 108.504 34.829 100.837 40.8415 94.6767C46.854 88.4512 54.2062 83.7984 62.8982 80.7183C71.5902 77.5728 81.1972 76 91.719 76C98.9733 76 106.195 76.8519 113.384 78.5558C120.573 80.2596 127.141 83.0775 133.088 87.0094C139.035 90.8759 143.806 96.1512 147.4 102.836C151.06 109.52 152.89 117.875 152.89 127.902V228.953H118.775V208.212H117.599C115.442 212.406 112.403 216.338 108.482 220.008C104.626 223.612 99.7575 226.528 93.8757 228.756C88.0593 230.919 81.2298 232 73.3874 232ZM82.6023 205.853C89.7258 205.853 95.9017 204.444 101.13 201.626C106.358 198.742 110.377 194.941 113.188 190.223C116.063 185.505 117.501 180.36 117.501 174.79V156.998C116.39 157.916 114.495 158.767 111.815 159.554C109.201 160.34 106.26 161.028 102.992 161.618C99.7248 162.208 96.4898 162.732 93.2875 163.191C90.0852 163.65 87.3077 164.043 84.955 164.371C79.6613 165.091 74.9232 166.271 70.7406 167.909C66.558 169.548 63.2577 171.841 60.8396 174.79C58.4215 177.674 57.2125 181.409 57.2125 185.996C57.2125 192.549 59.5979 197.497 64.3687 200.839C69.1395 204.181 75.2173 205.853 82.6023 205.853Z" fill="#7657FF"/>
<path d="M210.433 231.115C204.486 231.115 199.389 229.018 195.141 224.824C190.893 220.63 188.801 215.519 188.867 209.49C188.801 203.592 190.893 198.546 195.141 194.352C199.389 190.158 204.486 188.06 210.433 188.06C216.184 188.06 221.184 190.158 225.432 194.352C229.745 198.546 231.935 203.592 232 209.49C231.935 213.487 230.889 217.124 228.863 220.401C226.902 223.677 224.288 226.299 221.021 228.265C217.818 230.165 214.289 231.115 210.433 231.115Z" fill="#7657FF"/>
</svg>
